<?xml version="1.0" encoding="iso-8859-1"?>
<!-- Generator: Adobe Illustrator 19.0.0, SVG Export Plug-In . SVG Version: 6.00 Build 0)  -->
<svg version="1.1" id="Layer_1" xmlns="http://www.w3.org/2000/svg" xmlns:xlink="http://www.w3.org/1999/xlink" x="0px" y="0px"
	 viewBox="0 0 495 495" style="enable-background:new 0 0 495 495;" xml:space="preserve">
<g>
	<polygon style="fill:#A258CD;" points="40,40 111,40 111,0 0,0 0,111 40,111 	"/>
	<polygon style="fill:#8034AD;" points="384,0 384,40 455,40 455,111 495,111 495,0 	"/>
	<polygon style="fill:#8034AD;" points="455,455 384,455 384,495 495,495 495,384 455,384 	"/>
	<polygon style="fill:#A258CD;" points="40,384 0,384 0,495 111,495 111,455 40,455 	"/>
	<path style="fill:#D80027;" d="M279.405,180c26.191,0,47.5-21.309,47.5-47.5S305.597,85,279.405,85s-47.5,21.309-47.5,47.5
		S253.214,180,279.405,180z"/>
	<polygon style="fill:#CC7400;" points="181.238,221.922 181.238,410 280.241,410 280.241,292.672 	"/>
	<polygon style="fill:#CC7400;" points="410,313.18 351.358,251.304 351.358,410 410,410 	"/>
	<polygon style="fill:#EE8700;" points="280.241,292.672 280.241,410 351.358,410 351.358,251.304 	"/>
	<polygon style="fill:#EE8700;" points="85,323.465 85,410 181.238,410 181.238,221.922 	"/>
</g>
<g>
</g>
<g>
</g>
<g>
</g>
<g>
</g>
<g>
</g>
<g>
</g>
<g>
</g>
<g>
</g>
<g>
</g>
<g>
</g>
<g>
</g>
<g>
</g>
<g>
</g>
<g>
</g>
<g>
</g>
</svg>
